<?xml version="1.0" encoding="utf-8"?>
<!-- Generator: Adobe Illustrator 24.0.1, SVG Export Plug-In . SVG Version: 6.00 Build 0)  -->
<svg version="1.1" id="Layer_1" focusable="false" xmlns="http://www.w3.org/2000/svg" xmlns:xlink="http://www.w3.org/1999/xlink"
	 x="0px" y="0px" viewBox="0 0 671 640.3" style="enable-background:new 0 0 671 640.3;" xml:space="preserve">
<style type="text/css">
	.st0{fill:none;stroke:#FFFFFF;stroke-width:40;stroke-miterlimit:10;}
</style>
<path class="st0" d="M581.3,302.2c0.3,136.6-111.2,248.4-247.8,248.5c-59,0-113.2-20.5-155.8-54.9c-11.1-8.9-11.9-25.5-1.8-35.6
	l11.3-11.3c8.6-8.6,22.4-9.6,31.9-2c31.4,24.9,71.1,39.8,114.3,39.8c101.7,0,184-82.3,184-184c0-101.7-82.3-184-184-184
	c-48.8,0-93.1,19-126.1,49.9l50.8,50.8c10.1,10.1,2.9,27.3-11.3,27.3H101.3c-8.8,0-16-7.2-16-16V85.3c0-14.3,17.2-21.4,27.3-11.3
	l49.4,49.4c44.5-42.5,104.9-68.7,171.3-68.7C470.1,54.7,581,165.4,581.3,302.2z M400.4,381l9.8-12.6c8.1-10.5,6.3-25.5-4.2-33.7
	L365.3,303V198.7c0-13.3-10.7-24-24-24h-16c-13.3,0-24,10.7-24,24v135.7l65.4,50.9C377.2,393.3,392.2,391.4,400.4,381z"/>
</svg>
